<?xml version="1.0" encoding="UTF-8" standalone="no"?>
<svg id="svg2" width="144" height="144" version="1.0">
<rect id="a" style="opacity:1;fill:#31372a;stroke:none" width="144" height="143.84433" x="0" y="0" />
<path id="b" style="fill:#dd5555;fill-opacity:1;stroke:none" d="M 144,24 L 84,144 L 96,144 L 144,48 L 144,24 z" />
<path id="c" style="fill:#77aa44;fill-opacity:1;stroke:none" d="M 144,72 L 108,144 L 120,144 L 144,96 L 144,72 z" />
<path id="d" style="fill:#bbbbaa;fill-opacity:1;stroke:none" d="M 58,70 L 17,70 L 17,68 L 58,68 L 58,48 L 8,48 L 8,57 L 49,57 L 49,59 L 8,59 L 8,79 L 58,79 L 58,70 z" />
<path id="e" style="fill:#bbbbaa;fill-opacity:1;stroke:none" d="M 71,68 L 103,68 L 103,79 L 112,79 L 112,59 L 103,59 L 103,48 L 94,48 L 94,59 L 80,59 L 80,48 L 71,48 L 71,59 L 62,59 L 62,79 L 71,79 L 71,68 z" />
<path id="f" style="fill:#bbbbaa;fill-opacity:1;stroke:none" d="M 28,24 L 58,24 L 58,15 L 28,15 L 28,13 L 58,13 L 58,4 L 38.5,4 L 19,4 L 19,15 L 10,15 L 10,24 L 19,24 L 19,46 L 28,46 L 28,24 z" />
<path id="g" style="fill:#bbbbaa;fill-opacity:1;stroke:none" d="M 110,15 L 71,15 L 71,4 L 62,4 L 62,46 L 110,46 L 110,15 zM 71,24 L 101,24 L 101,37 L 71,37 L 71,24 z" />
<path id="h" style="fill:#4477aa;fill-opacity:1;stroke:none" d="M 144,96 L 120,144 L 132,144 L 144,120 L 144,96 z" />
<path id="i" style="fill:#ee9944;fill-opacity:1;stroke:none" d="M 144,72 L 108,144 L 96,144 L 144,48 L 144,72 z" />
</svg>
